<svg xmlns="http://www.w3.org/2000/svg" viewBox="0 0 64 128">
  <rect x="13" y="24" width="10" height="24" rx="4" fill="#151515"/>
  <rect x="41" y="24" width="10" height="24" rx="4" fill="#151515"/>
  <rect x="12" y="82" width="11" height="26" rx="4" fill="#151515"/>
  <rect x="41" y="82" width="11" height="26" rx="4" fill="#151515"/>
  <path d="M32 10 C44 18 49 36 49 64 C49 94 43 113 32 121 C21 113 15 94 15 64 C15 36 20 18 32 10 Z" fill="#f2f0e8" stroke="#111111" stroke-width="4" stroke-linejoin="round"/>
  <path d="M22 33 C25 24 29 19 32 17 C35 19 39 24 42 33 L38 49 L26 49 Z" fill="#d63b2a"/>
  <path d="M24 54 L40 54 L43 83 L21 83 Z" fill="#23272b"/>
  <path d="M26 57 L38 57 L40 78 L24 78 Z" fill="#44515a"/>
  <path d="M23 88 L41 88 L38 111 L26 111 Z" fill="#d63b2a"/>
  <rect x="24" y="14" width="16" height="7" rx="3" fill="#111111"/>
  <rect x="20" y="108" width="24" height="8" rx="3" fill="#111111"/>
  <path d="M20 64 H44" stroke="#d63b2a" stroke-width="4" stroke-linecap="round"/>
  <path d="M31 24 L28 45 M33 24 L36 45" stroke="#ffffff" stroke-width="3" stroke-linecap="round" opacity="0.9"/>
  <circle cx="32" cy="66" r="4" fill="#f2f0e8"/>
</svg>
