<svg xmlns="http://www.w3.org/2000/svg" viewBox="0 0 64 128">
  <defs>
    <linearGradient id="body" x1="0" x2="0" y1="0" y2="1">
      <stop offset="0" stop-color="#ff4a4a"/>
      <stop offset="1" stop-color="#a60000"/>
    </linearGradient>
  </defs>
  <rect x="12" y="4" width="40" height="10" rx="3" fill="#f5f5f5"/>
  <path d="M32 8 C44 22 48 42 48 68 C48 92 42 112 32 122 C22 112 16 92 16 68 C16 42 20 22 32 8 Z" fill="url(#body)" stroke="#111" stroke-width="3"/>
  <path d="M32 18 C39 34 40 52 40 70 C40 86 37 99 32 108 C27 99 24 86 24 70 C24 52 25 34 32 18 Z" fill="#e11" opacity="0.75"/>
  <ellipse cx="32" cy="58" rx="10" ry="18" fill="#151515" stroke="#ededed" stroke-width="2"/>
  <rect x="6" y="33" width="12" height="26" rx="4" fill="#111"/>
  <rect x="46" y="33" width="12" height="26" rx="4" fill="#111"/>
  <rect x="5" y="80" width="13" height="28" rx="4" fill="#111"/>
  <rect x="46" y="80" width="13" height="28" rx="4" fill="#111"/>
  <rect x="8" y="111" width="48" height="10" rx="3" fill="#151515"/>
  <rect x="17" y="18" width="30" height="6" rx="3" fill="#ffffff"/>
  <path d="M32 2 L38 16 L26 16 Z" fill="#ffffff" stroke="#111" stroke-width="2"/>
</svg>
